HIERARCHY
ROOT pelvis
{
  OFFSET 6.1229 87.9681 -138.714
  CHANNELS 6 Xposition Yposition Zposition Zrotation Xrotation Yrotation
  JOINT lfemur
  {
    OFFSET 0 11.9945 0
    CHANNELS 3 Zrotation Xrotation Yrotation
    JOINT ltibia
    {
      OFFSET 0 0 -41.4872
      CHANNELS 3 Zrotation Xrotation Yrotation
      JOINT lfoot
      {
        OFFSET 0 0 -39.7538
        CHANNELS 3 Zrotation Xrotation Yrotation
        JOINT ltoes
        {
          OFFSET 15.4382 0 0
          CHANNELS 3 Zrotation Xrotation Yrotation
          End Site
          {
            OFFSET 0 0 0
          }
        }
      }
    }
  }
  JOINT rfemur
  {
    OFFSET 0 -11.9945 0
    CHANNELS 3 Zrotation Xrotation Yrotation
    JOINT rtibia
    {
      OFFSET 0 0 -41.4872
      CHANNELS 3 Zrotation Xrotation Yrotation
      JOINT rfoot
      {
        OFFSET 0 0 -39.7538
        CHANNELS 3 Zrotation Xrotation Yrotation
        JOINT rtoes
        {
          OFFSET 15.4382 0 0
          CHANNELS 3 Zrotation Xrotation Yrotation
          End Site
          {
            OFFSET 0 0 0
          }
        }
      }
    }
  }
  JOINT thorax
  {
    OFFSET 2.876 -1.51056 9.05135
    CHANNELS 3 Zrotation Xrotation Yrotation
    JOINT head
    {
      OFFSET 4.15085 -2.12891 47.5037
      CHANNELS 3 Zrotation Xrotation Yrotation
      End Site
      {
        OFFSET 0 0 0
      }
    }
    JOINT lclavicle
    {
      OFFSET 0 0 42.6193
      CHANNELS 3 Zrotation Xrotation Yrotation
      JOINT lhumerus
      {
        OFFSET 0 19.157 -2.10407
        CHANNELS 3 Zrotation Xrotation Yrotation
        JOINT lradius
        {
          OFFSET 0 0 -26.2788
          CHANNELS 3 Zrotation Xrotation Yrotation
          JOINT lhand
          {
            OFFSET 0 0 -26.6372
            CHANNELS 3 Zrotation Xrotation Yrotation
            End Site
            {
              OFFSET 0 0 0
            }
          }
        }
      }
    }
    JOINT rclavicle
    {
      OFFSET 0 0 42.6193
      CHANNELS 3 Zrotation Xrotation Yrotation
      JOINT rhumerus
      {
        OFFSET 0 -19.157 -2.10407
        CHANNELS 3 Zrotation Xrotation Yrotation
        JOINT rradius
        {
          OFFSET 0 0 -26.2788
          CHANNELS 3 Zrotation Xrotation Yrotation
          JOINT rhand
          {
            OFFSET 0 0 -26.6372
            CHANNELS 3 Zrotation Xrotation Yrotation
            End Site
            {
              OFFSET 0 0 0
            }
          }
        }
      }
    }
  }
}
MOTION
Frames:	9
Frame Time:	0.0333333
6.26113 87.9057 -139.186 -94.4808 45.992 -81.4448 23.4671 5.09782 -10.4824 -3.13781e-015 1.19271e-015 -2.16137 0.196654 0.0840072 23.1464 -6.81292e-015 7.15625e-015 -31.3556 -8.25943 1.73611 2.42878 -6.33428e-015 -7.95139e-016 2.3023 -6.51272 -1.47412 12.6992 -5.58604e-015 7.95139e-015 -43.9971 -7.57422 4.31101 -13.1045 51.2844 2.79005 10.1881 11.6968 1.03965 -0.230197 157.256 -38.7962 -23.144 172.314 -17.3998 -114.29 -0.000211723 37.3222 -26.1344 7.62282 3.49755 -0.476908 40.0879 -4.98034 22.9473 -14.4824 -24.4509 -121.965 -3.22298e-006 32.6585 -13.8186 
6.27314 87.9071 -139.186 -94.4791 46.1226 -81.4341 23.6382 5.0669 -10.5778 -3.19594e-015 -3.97569e-016 -1.95119 0.196166 0.0833795 23.0405 -2.02574e-014 9.54166e-015 -31.3556 -8.20828 1.69897 2.40732 -6.33488e-015 -7.95139e-016 2.23919 -6.32769 -1.43783 12.7504 -1.44417e-014 7.95139e-015 -44.1218 -6.64735 5.4379 -13.2031 50.952 1.95926 11.4959 10.6913 -0.603567 0.0964996 157.788 -39.4111 -23.4644 172.15 -17.7355 -114.356 0.00230402 36.9256 -26.3896 7.51751 2.30834 -0.315354 39.7991 -4.90038 22.8876 -14.5473 -24.7177 -121.831 5.88362e-005 32.7553 -13.8015 
6.30624 87.9157 -139.277 -94.4709 46.2059 -81.3958 23.6093 5.04904 -10.8248 6.36355e-015 0 -1.58799 0.257323 0.108425 22.9096 -6.32841e-015 7.95139e-015 -31.3556 -8.25299 1.70197 2.39858 -9.46211e-015 -2.38542e-015 2.05794 -6.18404 -1.41434 12.8336 -8.471e-015 9.54166e-015 -44.029 -8.45369 5.58165 -12.9561 53.08 1.94371 11.1485 12.2531 -0.729808 0.148846 157.965 -40.5789 -23.8769 171.574 -18.8947 -114.588 0.00123436 36.9326 -26.7146 9.5808 2.28193 -0.396402 39.7456 -4.17289 22.1689 -14.5866 -25.2492 -121.394 -0.000206748 32.7532 -13.5847 
6.3626 87.9327 -139.303 -94.4358 46.2272 -81.3618 23.5809 4.98317 -11.1029 -6.36243e-015 0 -1.16783 0.288235 0.120855 22.7808 -1.32929e-014 8.74653e-015 -31.3556 -8.53227 1.66083 2.42997 -0 0 1.78922 -5.8777 -1.35724 12.9624 -9.83157e-015 1.27222e-014 -43.8274 -9.97965 5.49506 -12.7057 54.78 1.96304 10.6299 13.6507 -0.590902 0.143803 157.935 -41.2381 -24.2186 171.223 -19.5425 -114.778 -0.00314915 37.4219 -27.1478 11.1029 2.34716 -0.460046 39.8552 -3.59149 21.5245 -14.4331 -25.401 -120.963 -0.000413296 32.6366 -13.3553 
6.42661 87.9592 -139.3 -94.3605 46.295 -81.3624 23.7789 4.84117 -11.4144 8.93027e-018 7.95139e-016 -0.643467 0.168734 0.071048 22.6004 -1.42619e-014 7.15625e-015 -31.3556 -8.94248 1.55686 2.48949 9.5652e-015 -7.95139e-016 1.46955 -5.40471 -1.26512 13.1412 -1.57577e-014 1.11319e-014 -43.6972 -9.85807 5.30141 -12.733 54.861 1.86495 10.4769 13.6094 -0.541443 0.134148 157.786 -40.8586 -24.481 171.384 -19.0607 -114.898 -0.00681299 37.9128 -27.1411 10.9081 2.42364 -0.459938 40.0411 -3.61958 21.5889 -14.1634 -25.0291 -120.817 -0.00189318 32.3097 -13.0963 
6.50484 87.9824 -139.305 -94.2794 46.4642 -81.3304 24.4549 4.62766 -11.8839 6.35992e-015 3.97569e-016 0.175626 -0.250629 -0.102375 22.2335 -1.15064e-014 5.56597e-015 -31.3556 -9.13799 1.43699 2.52573 -0 0 1.14128 -4.96073 -1.18148 13.366 -6.9445e-015 1.11319e-014 -43.89 -8.37526 4.49541 -13.2562 53.8235 2.12389 10.2776 12.302 -0.0387916 0.00846453 157.509 -39.44 -24.8656 171.984 -17.6238 -114.943 -0.003466 37.3506 -25.5447 9.35604 3.42171 -0.563438 40.2783 -4.35642 22.9167 -14.0657 -24.466 -121.172 8.10198e-005 31.5942 -12.5912 
6.65302 88.0108 -139.303 -94.153 46.5031 -81.2029 24.7913 4.26083 -12.64 -0 0 1.12735 -0.539984 -0.217217 21.9585 -1.32929e-014 8.74653e-015 -31.3541 -9.99058 1.27098 2.25733 1.38709e-017 -7.95139e-016 0.999403 -4.11408 -0.989985 13.5148 -2.44554e-015 1.11319e-014 -44.4531 -8.45508 4.32466 -13.4044 54.1696 2.06641 10.4944 12.4704 0.0730517 -0.0163838 156.922 -38.9569 -25.1392 171.751 -18.3432 -114.725 -0.00502172 38.0918 -26.0658 9.2361 3.40971 -0.554178 40.5353 -4.3793 22.8403 -14.0103 -24.5141 -121.022 0.000122186 31.8927 -12.5227 
6.80992 88.0221 -139.295 -94.0526 46.5344 -81.0014 24.9398 3.96307 -13.5955 -3.1835e-015 0 2.46333 -0.635427 -0.24989 21.4781 -5.84548e-015 8.74653e-015 -31.3382 -10.3513 1.16813 1.8691 -1.26962e-014 -1.59028e-015 1.00792 -3.70165 -0.893134 13.5457 -3.99536e-015 9.54166e-015 -44.5592 -8.72969 4.24881 -13.5403 54.8394 1.67629 10.3908 12.9062 0.146121 -0.0337688 156.486 -38.7448 -25.2646 172.416 -17.6097 -113.727 -0.00819797 37.3976 -25.6714 9.41297 3.40066 -0.563417 40.7931 -4.33437 22.7291 -14.0294 -24.68 -120.898 -0.000135998 31.8862 -12.4137 
6.96434 88.0139 -139.294 -93.999 46.5588 -80.7975 25.2274 3.67764 -14.6288 6.37664e-015 0 3.99958 -0.912139 -0.345022 20.868 -9.56939e-015 8.74653e-015 -31.3364 -10.3564 1.08613 1.44724 -3.19819e-015 7.95139e-016 1.21858 -3.56349 -0.855001 13.4744 -2.19825e-014 9.54166e-015 -45.1755 -8.16587 4.46842 -13.7352 54.6795 0.955564 10.6208 12.2889 -0.42003 0.0760025 156.026 -38.8725 -25.5692 173.108 -16.8252 -112.658 0.00130027 37.0084 -25.0531 9.06888 3.05426 -0.492042 40.7431 -4.49729 22.8717 -13.9072 -24.5676 -120.776 -0.00196523 31.9807 -12.7139 
